<?xml version="1.0" encoding="UTF-8"?>
<!-- Created with Inkscape (http://www.inkscape.org/) by Tulsky A.V. 2023 -->
<svg width="128" height="128" version="1.1" viewBox="0 0 33.867 33.867" xml:space="preserve" xmlns="http://www.w3.org/2000/svg"><g><rect transform="matrix(1 0 0 .75 0 4.2333)" y="-5.6444" width="33.867" height="45.156" rx="6.35" ry="8.4667" fill="#b0b9d8" stroke-width="5.9246"/><g transform="matrix(.75 0 0 .5625 4.2333 7.4083)"><path d="m0 16.933 9.8778-16.933h2.8222l-6.35 16.933 6.35 16.933h-2.8222z" fill="#0f2d64" stroke-width="1.1924"/><path d="m2.1167 16.933 9.1281-16.933-7.0115 16.933 7.0115 16.933z" fill="#b0b9d8" stroke-width=".85198"/></g><g transform="matrix(-.75 0 0 .5625 29.633 7.4083)"><path d="m0 16.933 9.8778-16.933h2.8222l-6.35 16.933 6.35 16.933h-2.8222z" fill="#0f2d64" stroke-width="1.1924"/><path d="m2.1167 16.933 9.1281-16.933-7.0115 16.933 7.0115 16.933z" fill="#b0b9d8" stroke-width=".85198"/></g><g transform="matrix(.030238 0 0 .030238 -2.6413 10.148)"><path d="m778.58 93.178-54.584 54.584c8.2067 9.0151 13.352 21.82 13.352 36.117v81.062c0 27.406-18.793 49.469-42.135 49.469h-95.73c-11.165 0-21.259-5.0858-28.783-13.352l-54.584 54.584c5.4225 5.4225 12.922 8.7676 21.232 8.7676h220c16.62 0 30-13.38 30-30v-220c0-8.31-3.3451-15.81-8.7676-21.232z" fill="#0f2d64"/><path d="m537.35 84.411c-16.62 0-30 13.38-30 30v220c0 8.31 3.3451 15.81 8.7676 21.232l54.584-54.584c-8.2067-9.0151-13.352-21.82-13.352-36.117v-81.062c0-27.406 18.793-49.469 42.135-49.469h95.73c11.165 0 21.259 5.0858 28.783 13.352l54.584-54.584c-5.4225-5.4225-12.922-8.7676-21.232-8.7676z" fill="#6275a3"/></g></g></svg>
